<?xml version="1.0" encoding="utf-8"?>
<!-- Generator: Adobe Illustrator 25.4.0, SVG Export Plug-In . SVG Version: 6.00 Build 0)  -->
<svg version="1.1" id="Capa_1" xmlns="http://www.w3.org/2000/svg" xmlns:xlink="http://www.w3.org/1999/xlink" x="0px" y="0px"
	 viewBox="0 0 400 400" style="enable-background:new 0 0 400 400;" xml:space="preserve">
<style type="text/css">
	.st0{fill:#FFFFFF;}
</style>
<g>
	<path class="st0" d="M44.41,162.56c0.55-1.52,0.9-3.15,1.7-4.53c2.5-4.32,6.37-6.42,11.36-6.42c13.92-0.01,27.83-0.01,41.75,0.01
		c0.86,0,1.47-0.22,2.1-0.84c14.07-13.85,28.17-27.68,42.26-41.51c10.92-10.72,21.84-21.44,32.78-32.15
		c2.95-2.89,5.86-5.83,8.91-8.6c2.81-2.55,6.17-4.09,9.99-4.44c5.83-0.54,10.7,3.04,12.38,9.19c0.48,1.76,0.59,3.61,0.84,5.43
		c0.07,0.48,0.02,0.97,0.02,1.46c0,80.62,0,161.25,0,241.87c0,3.88-0.4,7.69-2.08,11.25c-1.76,3.72-4.41,6.4-8.64,7.03
		c-3.38,0.51-6.49-0.5-9.27-2.34c-1.9-1.25-3.72-2.68-5.35-4.27c-10.22-9.95-20.37-19.97-30.55-29.96
		c-14.61-14.34-29.23-28.68-43.85-43.01c-2.53-2.48-5.08-4.93-7.58-7.43c-0.53-0.53-1.06-0.75-1.82-0.75
		c-13.99,0.02-27.97,0.02-41.96,0.01c-5.88,0-10.62-3.39-12.39-8.81c-0.22-0.68-0.4-1.38-0.6-2.07
		C44.41,215.32,44.41,188.94,44.41,162.56z"/>
	<path class="st0" d="M355.59,201.74c-0.11,22.45-5.01,43.26-14.96,62.85c-8.49,16.73-19.96,31.12-34.25,43.26
		c-8.2,6.96-17.11,12.85-26.66,17.79c-2.1,1.09-4.17,2.15-6.59,2.33c-6.16,0.45-11.63-3.4-13.21-9.34
		c-1.56-5.86,1.34-12.09,6.89-14.65c6.42-2.96,12.36-6.69,18.01-10.91c15.09-11.29,26.68-25.45,34.75-42.48
		c4.68-9.89,7.8-20.26,9.45-31.08c1.65-10.81,1.79-21.64,0.35-32.46c-2.53-19.01-9.4-36.33-20.71-51.83
		c-10.72-14.68-24.2-26.17-40.44-34.35c-3.46-1.74-5.99-4.16-7.27-7.84c-2.39-6.89,2.05-14.83,9.2-16.2
		c2.83-0.54,5.67-0.23,8.31,1.1c13.45,6.77,25.59,15.39,36.23,26.06c19.1,19.15,31.73,41.89,37.65,68.31
		C354.53,182.16,355.54,192.14,355.59,201.74z"/>
	<path class="st0" d="M305.14,200.2c-0.32,26.89-8.44,48.92-24.66,67.89c-7.87,9.21-17.23,16.63-27.8,22.56
		c-2.59,1.46-5.18,2.68-8.21,2.49c-5.3-0.34-9.16-2.92-11.16-7.84c-1.98-4.87-1.05-9.36,2.41-13.34c1.68-1.92,4.01-2.79,6.13-4.01
		c11.73-6.77,21.01-16.01,27.82-27.73c5-8.61,8.18-17.87,9.47-27.73c2.09-15.95-0.41-31.17-7.9-45.45
		c-6.99-13.34-17.15-23.67-30.28-31.05c-2.25-1.26-4.45-2.5-6.01-4.66c-3.41-4.73-3.2-11.16,0.58-15.61
		c3.78-4.45,9.94-5.71,15.18-2.96c7.87,4.12,15.09,9.18,21.63,15.2c9.73,8.96,17.47,19.39,23.14,31.34
		c4.35,9.17,7.26,18.79,8.61,28.84C304.72,192.78,304.92,197.46,305.14,200.2z"/>
	<path class="st0" d="M346.74,339.06c-3.18,0-6.37-1.19-8.83-3.59L63.67,68.62c-5.01-4.88-5.12-12.9-0.24-17.91
		c4.88-5.01,12.9-5.12,17.91-0.24l274.23,266.86c5.01,4.88,5.12,12.9,0.24,17.91C353.33,337.78,350.04,339.06,346.74,339.06z"/>
</g>
</svg>
